HIERARCHY
ROOT hip
{
  OFFSET 0 0 0
  CHANNELS 6 Xposition Yposition Zposition Zrotation Yrotation Xrotation
  JOINT abdomen
  {
    OFFSET 0 20.6881 -0.73152
    CHANNELS 3 Zrotation Xrotation Yrotation
    JOINT chest
    {
      OFFSET 0 11.7043 -0.48768
      CHANNELS 3 Zrotation Xrotation Yrotation
      JOINT neck
      {
        OFFSET 0 22.1894 -2.19456
        CHANNELS 3 Zrotation Xrotation Yrotation
        JOINT head
        {
          OFFSET -0.24384 7.07133 1.2192
          CHANNELS 3 Zrotation Xrotation Yrotation
          JOINT leftEye
          {
            OFFSET 4.14528 8.04674 8.04672
            CHANNELS 3 Zrotation Xrotation Yrotation
            End Site
            {
              OFFSET 1 0 0
            }
          }
          JOINT rightEye
          {
            OFFSET -3.6576 8.04674 8.04672
            CHANNELS 3 Zrotation Xrotation Yrotation
            End Site
            {
              OFFSET 1 0 0
            }
          }
        }
      }
      JOINT rCollar
      {
        OFFSET -2.68224 19.2634 -4.8768
        CHANNELS 3 Zrotation Xrotation Yrotation
        JOINT rShldr
        {
          OFFSET -8.77824 -1.95073 1.46304
          CHANNELS 3 Zrotation Xrotation Yrotation
          JOINT rForeArm
          {
            OFFSET -28.1742 -1.7115 0.48768
            CHANNELS 3 Zrotation Xrotation Yrotation
            JOINT rHand
            {
              OFFSET -22.5879 0.773209 7.07136
              CHANNELS 3 Zrotation Xrotation Yrotation
              JOINT rThumb1
              {
                OFFSET -1.2192 -0.487915 3.41376
                CHANNELS 3 Zrotation Xrotation Yrotation
                JOINT rThumb2
                {
                  OFFSET -3.37035 -0.52449 3.41376
                  CHANNELS 3 Zrotation Xrotation Yrotation
                  End Site
                  {
                    OFFSET -1.78271 -1.18214 1.43049
                  }
                }
              }
              JOINT rIndex1
              {
                OFFSET -7.75947 0.938293 5.60832
                CHANNELS 3 Zrotation Xrotation Yrotation
                JOINT rIndex2
                {
                  OFFSET -2.54057 -0.884171 1.56538
                  CHANNELS 3 Zrotation Xrotation Yrotation
                  End Site
                  {
                    OFFSET -1.62519 -0.234802 1.16502
                  }
                }
              }
              JOINT rMid1
              {
                OFFSET -8.24714 1.18213 3.41376
                CHANNELS 3 Zrotation Xrotation Yrotation
                JOINT rMid2
                {
                  OFFSET -3.10165 -0.590103 1.0647
                  CHANNELS 3 Zrotation Xrotation Yrotation
                  End Site
                  {
                    OFFSET -2.48547 -0.328903 0.83742
                  }
                }
              }
              JOINT rRing1
              {
                OFFSET -8.82822 0.546677 1.51678
                CHANNELS 3 Zrotation Xrotation Yrotation
                JOINT rRing2
                {
                  OFFSET -2.60934 -0.819778 -0.0198488
                  CHANNELS 3 Zrotation Xrotation Yrotation
                  End Site
                  {
                    OFFSET -2.33842 -0.294052 0.168128
                  }
                }
              }
              JOINT rPinky1
              {
                OFFSET -8.27202 -0.0477905 -0.4584
                CHANNELS 3 Zrotation Xrotation Yrotation
                JOINT rPinky2
                {
                  OFFSET -1.82734 -0.647385 -0.700984
                  CHANNELS 3 Zrotation Xrotation Yrotation
                  End Site
                  {
                    OFFSET -1.69225 -0.51767 -0.607171
                  }
                }
              }
            }
          }
        }
      }
      JOINT lCollar
      {
        OFFSET 2.68224 19.2634 -4.8768
        CHANNELS 3 Zrotation Xrotation Yrotation
        JOINT lShldr
        {
          OFFSET 8.77824 -1.95073 1.46304
          CHANNELS 3 Zrotation Xrotation Yrotation
          JOINT lForeArm
          {
            OFFSET 28.1742 -1.7115 0.48768
            CHANNELS 3 Zrotation Xrotation Yrotation
            JOINT lHand
            {
              OFFSET 22.5879 0.773209 7.07136
              CHANNELS 3 Zrotation Xrotation Yrotation
              JOINT lThumb1
              {
                OFFSET 1.2192 -0.487915 3.41376
                CHANNELS 3 Zrotation Xrotation Yrotation
                JOINT lThumb2
                {
                  OFFSET 3.37035 -0.52449 3.41376
                  CHANNELS 3 Zrotation Xrotation Yrotation
                  End Site
                  {
                    OFFSET 1.78271 -1.18214 1.43049
                  }
                }
              }
              JOINT lIndex1
              {
                OFFSET 7.75947 0.938293 5.60832
                CHANNELS 3 Zrotation Xrotation Yrotation
                JOINT lIndex2
                {
                  OFFSET 2.54057 -0.884171 1.56538
                  CHANNELS 3 Zrotation Xrotation Yrotation
                  End Site
                  {
                    OFFSET 1.62519 -0.234802 1.16502
                  }
                }
              }
              JOINT lMid1
              {
                OFFSET 8.24714 1.18213 3.41376
                CHANNELS 3 Zrotation Xrotation Yrotation
                JOINT lMid2
                {
                  OFFSET 3.10165 -0.590103 1.0647
                  CHANNELS 3 Zrotation Xrotation Yrotation
                  End Site
                  {
                    OFFSET 2.48547 -0.328903 0.83742
                  }
                }
              }
              JOINT lRing1
              {
                OFFSET 8.82822 0.546677 1.51678
                CHANNELS 3 Zrotation Xrotation Yrotation
                JOINT lRing2
                {
                  OFFSET 2.60934 -0.819778 -0.0198488
                  CHANNELS 3 Zrotation Xrotation Yrotation
                  End Site
                  {
                    OFFSET 2.33842 -0.294052 0.168128
                  }
                }
              }
              JOINT lPinky1
              {
                OFFSET 8.27202 -0.0477905 -0.4584
                CHANNELS 3 Zrotation Xrotation Yrotation
                JOINT lPinky2
                {
                  OFFSET 1.82734 -0.647385 -0.700984
                  CHANNELS 3 Zrotation Xrotation Yrotation
                  End Site
                  {
                    OFFSET 1.69225 -0.51767 -0.607171
                  }
                }
              }
            }
          }
        }
      }
    }
  }
  JOINT rButtock
  {
    OFFSET -8.77824 4.35084 1.2192
    CHANNELS 3 Zrotation Xrotation Yrotation
    JOINT rThigh
    {
      OFFSET 0 -1.70687 -2.19456
      CHANNELS 3 Zrotation Xrotation Yrotation
      JOINT rShin
      {
        OFFSET 0 -36.8199 0.73152
        CHANNELS 3 Zrotation Xrotation Yrotation
        JOINT rFoot
        {
          OFFSET 0.73152 -45.1104 -5.12064
          CHANNELS 3 Zrotation Xrotation Yrotation
          End Site
          {
            OFFSET -1.1221 -3.69964 12.103
          }
        }
      }
    }
  }
  JOINT lButtock
  {
    OFFSET 8.77824 4.35084 1.2192
    CHANNELS 3 Zrotation Xrotation Yrotation
    JOINT lThigh
    {
      OFFSET 0 -1.70687 -2.19456
      CHANNELS 3 Zrotation Xrotation Yrotation
      JOINT lShin
      {
        OFFSET 0 -36.8199 0.73152
        CHANNELS 3 Zrotation Xrotation Yrotation
        JOINT lFoot
        {
          OFFSET -0.73152 -45.1104 -5.12064
          CHANNELS 3 Zrotation Xrotation Yrotation
          End Site
          {
            OFFSET 1.1221 -3.69964 12.103
          }
        }
      }
    }
  }
}
MOTION
Frames:	4
Frame Time:	0.03333
2.437 56.981899999999996 193.81740000000002 -0.213252 -50.490741 -2.343908 -7.275575 14.329089 1.514616 -1.170316 -12.434201 19.884 9.471226 18.385959 92.669662 -23.841045 5.081382 -68.187975 -0.001044 0.0 -0.002978 -0.001251 -0.0 0.002202 -157.023034 -14.824261 164.104792 -175.645716 -60.950507 -129.399978 176.824217 44.168923 37.540723 -164.757944 14.996669 138.404685 179.143621 -18.272821 89.128984 -77.719036 10.173629 23.995128 -124.893708 21.792234 105.252331 -171.421395 -26.354125 116.999805 78.53839 -80.918513 49.689746 -38.191023 56.672734 32.361877 -145.111534 -0.667749 -178.917284 -147.842146 -43.686836 -170.368286 13.632692 46.898563 11.160048 2.499006 2.330223 0.328453 83.951097 68.257473 -87.085849 107.040531 37.650801 -74.037784 -72.12591 -52.501185 87.736129 -175.66338 8.587924 -147.781093 -71.830667 -48.264128 -25.791901 30.4311 8.780967 6.723782 152.316952 -18.948084 -121.428745 2.686819 25.140577 3.277941 160.097593 -4.901639 -142.967519 25.771947 49.166204 -21.360894 -4.1e-05 0.022588 -0.007486 23.388269 72.955343 -36.414406 113.835827 -39.282717 111.846422 127.442007 -28.086144 126.003074 -179.971794 75.75091 -0.023208 161.735849 36.103601 -150.747768 -85.813117 -51.783423 -160.610417 146.371022 41.422047 126.152084 0.001388 0.001333 0.000694 43.442503 -44.663869 106.28329 49.304873 23.588569 178.252223 -11.630132 -14.752874 121.636092
2.4126000000000003 53.9983 200.7744 1.228465 -55.49051 -5.17775 -7.225074 14.975139 26.133108 -5.884931 -10.87396 -5.42406 9.472947 19.927683 95.41664 -25.466639 5.075167 -66.720535 0.000251 0.0 0.000265 0.000251 0.0 0.000265 -147.865849 28.55975 152.68951 105.650553 -42.698617 137.356941 -90.770662 -38.822017 71.514706 -165.102271 -36.131774 162.086631 -89.135657 38.427038 50.299502 20.291584 -26.94006 22.347027 37.21704 -57.917419 -0.642887 -127.461549 27.53484 103.696531 -160.673915 -6.667634 143.245499 -151.621622 24.811896 136.777878 0.001569 0.063818 0.019732 -156.120175 -13.744934 173.482151 -125.80587 -27.876801 -123.55135 7.401146 11.960955 1.562876 85.537243 68.182817 -88.689005 174.653835 21.626029 -117.805334 77.218513 -27.54379 -135.449285 -41.819172 -56.543156 -32.444729 -90.436935 -50.938972 -38.665683 33.046594 4.206246 8.540792 -2.325633 -3.868086 1.257795 65.475466 48.477535 -50.842665 8.416363 20.880252 -5.646559 -13.913006 -31.943314 1.29593 -0.004636 1.771194 -0.557742 -4.918114 38.530088 -6.843126 -6.23022 18.789344 -5.572285 10.380394 -25.923654 11.352928 -0.0008 -0.000665 -0.0002 -23.654386 -35.363441 -125.421932 -93.681334 -17.775612 -6.531917 46.178148 16.138808 65.869152 -0.001405 0.000865 -0.000703 48.051799 -42.314099 180.0 48.976635 -43.725921 -51.224291 -30.355975 43.002656 -32.905409
2.6092 52.3348 204.50539999999998 -1.908987 -56.06501 -1.554895 -4.54589 15.21047 -19.73403 3.356779 -12.097431 40.919551 -6.487417 31.137598 -141.148641 13.327975 39.422365 165.262974 0.003134 -0.0 -0.004082 0.003724 0.0 0.001528 -44.911727 -86.288429 -66.519733 61.378573 37.165759 -63.759913 -6.062785 75.360746 124.033485 -17.824248 -53.881817 -15.555671 -103.199579 36.33038 60.110949 -125.184294 -14.65573 72.668899 4.608492 -7.830924 -2.380741 8.071141 6.307718 0.443794 -161.09143 -7.96295 143.435797 45.886025 -70.680767 20.09521 -0.060484 -3.510318 -1.104329 -156.176355 -42.790326 177.051876 -140.974147 -0.020983 -138.018457 -25.483714 -40.28986 -27.040645 82.876882 68.300718 -86.000748 120.829605 37.957733 -88.754708 61.289415 -16.344575 170.183733 -41.511319 -54.252978 -33.811265 103.199037 36.331096 -60.111774 123.05171 -13.857182 -72.049997 43.648735 38.803664 -34.059682 -67.698873 -58.626003 -23.701788 160.572946 -6.359267 -143.198705 3.144318 16.846174 -3.575388 145.11874 0.267927 179.212105 156.349792 12.49497 -179.294282 -0.550507 1.456126 -0.506103 22.775467 -40.181157 23.478002 -0.0 -0.000184 -0.000884 -28.16905 -33.253093 -16.853211 83.865726 73.497153 -33.060364 174.933605 -27.65023 89.279981 0.003184 -0.000184 0.001592 55.264188 -42.148506 -0.0 -65.774037 28.233601 -7.752181 -2.506677 -16.891073 89.854918
2.7348 52.1162 206.55640000000002 -6.404133 -56.229447 4.242553 -2.148567 9.723649 -156.601263 3.663573 7.066254 178.370407 9.385839 24.988713 114.185166 -29.773597 12.894427 -84.426782 -0.002474 0.0 -0.004132 -0.001875 -0.0 0.000656 4.209914 -43.443122 -8.382796 -106.058767 -22.947096 -146.290079 165.392252 -57.377247 -80.983851 -18.387121 -42.901886 -10.735549 -7.350607 7.062531 1.57017 -123.695166 -19.446213 108.903498 -1.563785 2.495206 0.906632 -37.71109 42.916874 27.779006 -89.835309 60.702606 81.262944 -13.327478 36.377605 10.878861 -0.000119 0.022716 0.006505 -140.36494 60.456715 154.516446 -0.529792 -1.363931 -0.491295 -159.163657 54.53811 -150.04719 0.048919 0.292482 -0.064277 -49.231985 17.822124 -39.657989 -158.704676 52.990928 -72.439812 -160.495566 -25.901224 -143.821894 85.830238 38.630664 -47.954779 147.321811 -29.291439 -81.122959 -5.361162 -9.172304 2.723583 60.229555 48.316219 -47.004327 39.290286 53.365116 -32.879585 -144.482809 -74.625276 -112.53334 145.118159 0.267022 179.213954 -11.999128 51.124533 2.967301 145.545145 13.244091 142.149655 113.96386 -41.146755 112.254264 -179.987867 75.750186 -0.008301 150.167407 34.004295 -119.188582 -87.472574 -28.368146 135.620926 -76.483746 46.99416 -23.605357 179.998669 75.749552 -0.0 -138.826793 10.246326 -7.87483 -24.602174 65.338981 -9.076793 76.201352 24.602467 -18.944116
